<svg width="417" height="140" viewBox="0 0 417 140" fill="none" xmlns="http://www.w3.org/2000/svg">
<path d="M395.023 41H409C402.991 74.6538 395.023 99.1538 385.225 114.365C377.519 126.077 369.158 132 360.014 132C357.532 132 354.527 131.192 351 129.712V121.5C352.698 121.769 354.788 121.904 357.14 121.904C361.451 121.904 364.847 120.692 367.459 118.269C370.595 115.308 372.162 111.942 372.162 108.308C372.162 105.75 370.986 100.635 368.504 92.8269L352.306 41H366.806L378.432 79.7692C381.045 88.5192 382.09 94.7115 381.698 98.2115C388.099 80.7115 392.541 61.5962 395.023 41Z" fill="#F29111"/>
<path d="M349 45.8166C349 54.929 346.2 62.0888 340.6 67.1657C334.2 73.0237 324.467 76.0177 311.533 76.0177H307.4V107H293V19.1302C295.267 19.1302 298.867 19.1302 303.8 19H316.067C338.067 19 349 27.9822 349 45.8166ZM333.933 47.2485C333.933 35.4024 327.133 29.4142 313.667 29.4142H307.4V65.4734H313.933C327.267 65.4734 333.933 59.355 333.933 47.2485Z" fill="#F29111"/>
<path d="M281.445 98.4162L282 106.556C278.671 107.475 274.925 108 270.624 108C266.046 108 262.994 107.212 261.191 105.506C259.11 103.536 258 100.123 258 95.0028V14H272.289V89.7514C272.289 94.8715 273.121 97.6285 274.786 98.2849C275.341 98.4162 276.173 98.5475 277.283 98.5475C277.699 98.5475 278.393 98.5475 279.364 98.4162H281.445Z" fill="white"/>
<path d="M242 60.1528V107.665H231.184L230.102 100.458C223.477 106.197 216.446 109 209.281 109C195.76 109 189 102.861 189 90.5822C189 83.5087 191.704 78.0368 197.247 74.1664C203.196 70.029 211.849 67.8936 223.342 67.8936H228.209V61.8879C228.209 54.0135 223.612 50.0097 214.283 50.0097C208.199 50.0097 201.709 51.3443 194.543 53.8801L192.515 45.4719C200.898 41.8685 209.416 40 218.069 40C234.023 40 242 46.6731 242 60.1528ZM228.209 92.3172V76.5687H222.395C209.281 76.5687 202.791 80.5726 202.791 88.5803C202.791 95.5203 206.306 98.9903 213.202 98.9903C217.934 98.9903 222.936 96.7215 228.209 92.3172Z" fill="white"/>
<path d="M177 60.1528V107.665H166.388L165.327 100.458C158.827 106.197 151.929 109 144.898 109C131.633 109 125 102.861 125 90.5822C125 83.5087 127.653 78.0368 133.091 74.1664C138.928 70.029 147.419 67.8936 158.694 67.8936H163.47V61.8879C163.47 54.0135 158.96 50.0097 149.806 50.0097C143.837 50.0097 137.469 51.3443 130.438 53.8801L128.448 45.4719C136.673 41.8685 145.031 40 153.521 40C169.174 40 177 46.6731 177 60.1528ZM163.47 92.3172V76.5687H157.765C144.898 76.5687 138.531 80.5726 138.531 88.5803C138.531 95.5203 141.98 98.9903 148.745 98.9903C153.388 98.9903 158.296 96.7215 163.47 92.3172Z" fill="white"/>
<path d="M120 41.4536L118.396 53.6114C115.992 52.9507 114.122 52.6864 112.786 52.6864C109.447 52.6864 104.771 56.3866 98.7599 63.6549V107H85V41.1893H96.3548L97.5576 52.2899C103.97 44.0966 109.447 40 114.122 40C116.126 40 117.996 40.5286 120 41.4536Z" fill="white"/>
<path d="M68 58.3281V98.7871C60.2026 105.596 50.6872 109 39.5859 109C18.5727 109 8 94.3353 8 64.8748C8 49.9482 11.304 38.295 18.0441 29.7842C24.3877 21.9281 32.7137 18 43.022 18C52.8018 18 60.8634 22.059 67.207 30.046L60.9956 36.0691C55.0485 31.4863 49.2335 29.2604 43.815 29.2604C37.3392 29.2604 32.185 32.0101 28.6167 37.5094C24.7841 43.4014 22.9339 51.6504 22.9339 62.3871C22.9339 85.8245 29.2775 97.6086 42.0969 97.6086C46.9868 97.6086 50.9515 96.2993 53.9912 93.8115V68.8029H42.2291V58.3281H68Z" fill="white"/>
</svg>
