<svg width="60" height="60" viewBox="0 0 60 60" fill="none" xmlns="http://www.w3.org/2000/svg">
<g clip-path="url(#clip0_297_310)">
<path fill-rule="evenodd" clip-rule="evenodd" d="M0 30C0 24.0666 1.75947 18.2664 5.05591 13.3329C8.35235 8.39942 13.0377 4.55424 18.5195 2.28361C24.0013 0.0129845 30.0332 -0.581097 35.8527 0.57646C41.6721 1.73402 47.0177 4.59124 51.2133 8.78682C55.4088 12.9824 58.266 18.3279 59.4236 24.1473C60.5811 29.9667 59.9871 35.9987 57.7164 41.4805C55.4458 46.9623 51.6006 51.6477 46.6671 54.9441C41.7336 58.2405 35.9334 60 30 60C22.0435 60 14.4128 56.8393 8.78674 51.2132C3.16065 45.5871 0 37.9565 0 30ZM30 48C28.9391 48 27.9218 47.5786 27.1716 46.8284C26.4215 46.0783 26 45.0609 26 44V28C26 26.9391 26.4215 25.9217 27.1716 25.1716C27.9218 24.4214 28.9391 24 30 24C31.0609 24 32.0782 24.4214 32.8284 25.1716C33.5785 25.9217 34 26.9391 34 28V44C34 45.0609 33.5785 46.0783 32.8284 46.8284C32.0782 47.5786 31.0609 48 30 48ZM30 12C30.7911 12 31.5645 12.2346 32.2223 12.6741C32.8801 13.1137 33.3928 13.7384 33.6956 14.4693C33.9983 15.2002 34.0774 16.0045 33.9231 16.7804C33.7688 17.5563 33.3878 18.269 32.8284 18.8284C32.269 19.3879 31.5563 19.7688 30.7804 19.9231C30.0045 20.0775 29.2001 19.9983 28.4692 19.6955C27.7383 19.3928 27.1136 18.8801 26.6741 18.2223C26.2345 17.5645 26 16.7911 26 16C26 14.9391 26.4215 13.9217 27.1716 13.1716C27.9218 12.4214 28.9391 12 30 12Z" fill="#76C8D6"/>
</g>
<defs>
<clipPath id="clip0_297_310">
<rect width="60" height="60" fill="white"/>
</clipPath>
</defs>
</svg>
